# xmcd CD database file
#
# Track frame offsets:
#	150
#	9920
#	24100
#	37407
#	53858
#	66171
#	78109
#	93437
#	102136
#	114798
#	128795
#	143905
#	156367
#	172249
#	187977
#	202883
#	219124
#	233820
#	248890
#	266027
#	280356
#	295154
#	310121
#	324713
#	338993
#
# Disc length: 4734 seconds
#
# Revision: 0
# Processed by: cddbd v1.5.1PL2 Copyright (c) Steve Scherf et al.
# Submitted via: Feurio! 1.68 - http://www.feurio.com
#
DISCID=61127c19
DTITLE=Coyote Dax - Ranchero
DYEAR=1900
DGENRE=
TTITLE0=Corazon Soñador
TTITLE1=Hey Baby Que Paso
TTITLE2=Jukebox Junkie
TTITLE3=Blues De La Nacional
TTITLE4=Corazón Vanidoso
TTITLE5=Chatahoochie
TTITLE6=Ese Soy Yo Extrañandote
TTITLE7=Ranchero
TTITLE8=Necesito Country
TTITLE9=Se Murio De Amor
TTITLE10=Yo Quiero Vivir
TTITLE11=Arriva Abajo
TTITLE12=Chu-Chu Train
TTITLE13=Johny Boy
TTITLE14=Jambalaya
TTITLE15=No Rompas Mas Mi Pobre Corazon
TTITLE16=No Lo Hare Mas
TTITLE17=Dijo Si
TTITLE18=Carretera 54
TTITLE19=Arriba
TTITLE20=Pequeña Amiga
TTITLE21=Te Solte La Rienda
TTITLE22=Chiquilla Escandalosa
TTITLE23=Te Deseo
TTITLE24=Rock on
EXTD=
EXTT0=
EXTT1=
EXTT2=
EXTT3=
EXTT4=
EXTT5=
EXTT6=
EXTT7=
EXTT8=
EXTT9=
EXTT10=
EXTT11=
EXTT12=
EXTT13=
EXTT14=
EXTT15=
EXTT16=
EXTT17=
EXTT18=
EXTT19=
EXTT20=
EXTT21=
EXTT22=
EXTT23=
EXTT24=
PLAYORDER=
